<?xml version="1.0" encoding="utf-8"?>
<!-- Generator: Adobe Illustrator 15.0.0, SVG Export Plug-In . SVG Version: 6.00 Build 0)  -->
<!DOCTYPE svg PUBLIC "-//W3C//DTD SVG 1.1//EN" "http://www.w3.org/Graphics/SVG/1.1/DTD/svg11.dtd">
<svg version="1.1" id="Layer_1" xmlns="http://www.w3.org/2000/svg" xmlns:xlink="http://www.w3.org/1999/xlink" x="0px" y="0px"
	 width="1740px" height="1740px" viewBox="0 0 1740 1740" enable-background="new 0 0 1740 1740" xml:space="preserve">
<rect x="0" fill="#FFFFFF" width="1740" height="1740"/>
<path d="M660,240h60v-60h60v-60H660v60h-60v180h60V240z M900,360v60h-60v120h60v-60h60v60h60V420h-60v-60h60V120H840v120h60v-60h60
	v120H840v-60H720v120H900z M660,420h60v-60h-60V420z M1140,360h-60v60h60V360z M720,660h60V480h-60V660z M480,600v60h60v-60H480z
	 M660,480h-60v180h60V480z M300,720v60h60V660H180v-60h-60v180h120v-60H300z M1560,600h-180v60h-120v180h-60v60h60v60h-60v-60h-60
	v-60h60V720h-60v60h-60V660h180v-60h-120V480h-60v120H900v120H780v60h-60v60h120v-60h120v60h120v60H960v60h60v60h240v60h-240v-60
	h-60v60h-60v-60h-60v120h240v120H960v60h60v60H840v60h60v60h-60v60h-60v60h180v-120h120v-120h60v60h120v-60h120v-300h-60v-60h60v60
	h60v60h60v-120h-60v-60h-120V840h120V720h60v60h60v120h60V720h-60V600z M1320,1320h-180v-180h180V1320z M1380,780h-60v-60h60V780z
	 M420,780v60h60v-60H420z M300,840v-60h-60v60h-60v60h60v60h60v-60h60v-60H300z M600,960h60v-60h60v-60H600V660h-60v60h-60v60h60v60
	h-60v60h120V960z M120,1140h60V900h-60V1140z M840,900v60h60v-60H840z M1500,1020h60v60h60V960h-60v-60h-60V1020z M480,1020h120v-60
	H480V1020z M780,1020V900h-60v120H780z M900,1020h60v-60h-60V1020z M720,1080v60h-60v-60H480v-60h-60v-60h60v-60H360v120h-60v60h120
	v60h180v60h120v60h60v-180H720z M900,1200h-60v60h60V1200z M1260,1200h-60v60h60V1200z M1560,1260h60v-60h-60V1260z M780,1260v60
	H660v240h60v-120h60v-60h60v-120H780z M1500,1440h-120v60h120V1440z M1560,1620h60v-300h-180v60h60v60h60V1620z M600,1620h60v-60
	h-60V1620z M1140,1620v-60h60v60h60v-60h120v-60h-300v120H1140z M1440,1620v-60h-60v60H1440z M540,120H120v420h420V120z M477,477
	H183V183h294V477z M1200,120v420h420V120H1200z M1557,477h-294V183h294V477z M120,1620h420v-420H120V1620z M183,1263h294v294H183
	V1263z M420,240H240v180h180V240z M1500,240h-180v180h180V240z M240,1500h180v-180H240V1500z"/>
</svg>
