<svg xmlns="http://www.w3.org/2000/svg" width="950" height="380">
  <path fill-rule="evenodd" clip-rule="evenodd" fill="#23743A" d="M164.483 309.654l.636 5.075c-1.594 0-2.993.14-4.348-.045a8.103 8.103 0 0 1-3.017-1.09c-2.646-1.606-5.175-3.406-7.821-5.014-3.951-2.4-6.492-5.959-7.795-10.222-1.977-6.468-2.876-13.147-2.754-19.943.029-1.634-.218-3.271-.215-4.906.017-9.32 1.106-18.531 3.03-27.64 1.015-4.808 1.977-9.64 3.303-14.364 2.327-8.295 4.918-16.516 7.391-24.77 1.081-3.606 1.918-7.306 3.261-10.811a495.026 495.026 0 0 1 8.288-20.235c5.04-11.594 10.263-23.105 15.345-34.681 3.174-7.231 6.367-14.456 8.844-21.975 3.233-9.816 5.993-19.738 7.489-29.987.429-2.94 1.065-5.85 1.633-8.769.241-1.241-.088-2.356-.552-3.569-2.505 1.279-3.864 3.462-5.043 5.693-1.202 2.279-2.778 4.09-4.947 5.463-4.759 3.012-8.142 7.298-10.742 12.188-2.802 5.273-5.995 10.277-9.31 15.242-3.337 4.997-6.249 10.286-9.188 15.537-8.374 14.961-16.651 29.975-25.001 44.949-2.369 4.247-5.03 8.338-7.257 12.655-4.043 7.838-7.561 15.919-10.605 24.206-2.205 6.001-4.962 11.755-8.091 17.339-3.068 5.477-5.36 11.311-7.534 17.189-.928 2.507-1.849 5.019-2.833 7.504-1.063 2.682-1.577 5.46-1.726 8.329-.125 2.398-.854 4.645-1.894 6.797-1.641 3.395-3.233 6.813-4.929 10.179-1.175 2.332-2.657 4.521-3.702 6.905a34.292 34.292 0 0 1-5.635 8.896c-.875 1-1.946 1.826-2.876 2.782-1.524 1.565-3.196 3.035-4.466 4.789-2.853 3.939-6.635 6.745-10.649 9.308-1.458.931-3.008.851-4.472-.064-1.767-1.104-3.663-1.813-5.676-2.376-1.226-.343-2.431-1.178-3.356-2.085-1.676-1.646-3.591-2.396-5.887-2.425-4.278-.053-7.452-1.877-9.297-5.841-1.248-2.682-1.992-5.45-1.959-8.438.079-7.185.061-14.368.145-21.553.074-6.384.151-12.77.387-19.149.136-3.691.577-7.372.899-11.056.242-2.779.481-5.561.78-8.333.39-3.619.771-7.241 1.276-10.846.64-4.561 1.382-9.106 2.113-13.652.856-5.332 1.766-10.656 2.618-15.989.593-3.711 1.077-7.439 1.702-11.144.791-4.69 2.396-9.155 3.91-13.644 4.819-14.272 9.677-28.531 14.421-42.828 1.125-3.39 2.303-6.859 2.688-10.375.868-7.942 3.542-15.353 5.993-22.84.714-2.18 1.713-4.287 2.768-6.332 2.449-4.747 3.944-9.781 4.884-15.014.996-5.548 2.091-11.079 3.071-16.63.315-1.785.498-3.606.57-5.417.095-2.433-.003-4.871.032-7.307.032-2.211.87-3.552 3.03-3.467 1.564.061 3.145-.081 4.694.089 2.587.282 5.181.618 7.723 1.162 2.633.562 4.806 2.06 6.505 4.138 1 1.223 2.213 2.119 3.63 2.678 2.447.963 3.378 2.814 3.394 5.277.019 2.863.048 5.726-.006 8.587-.078 4.103 1.056 7.845 3.505 11.093 2.653 3.522 3.189 7.372 2.421 11.571-1.145 6.263-2.298 12.526-3.331 18.808-.413 2.507-.626 5.061-.729 7.602-.127 3.137-.697 6.154-1.881 9.049-1.361 3.331-2.209 6.795-3.06 10.285-.918 3.764-2.187 7.453-3.492 11.108-5.288 14.818-10.657 29.607-15.974 44.415-.594 1.655-1.22 3.331-1.519 5.05-.414 2.38-.552 4.809-.769 7.219-.088.967-.073 1.944-.108 2.916-.129 3.521-.287 7.042-.381 10.563a31.235 31.235 0 0 1-1.319 8.24 17.973 17.973 0 0 0-.789 5.015c-.034 2.548-.275 5.091-.407 7.637-.038.725-.007 1.453-.007 2.294 1.195-.216 1.807-.938 2.241-1.917 1.277-2.888 2.464-5.825 3.895-8.637 2.011-3.953 4.339-7.746 6.302-11.723 4.209-8.525 9.863-16.204 14.26-24.616 2.929-5.604 5.932-11.169 8.885-16.762 4.77-9.032 9.533-18.07 14.284-27.113 2.97-5.65 5.958-11.291 8.855-16.978 3.183-6.249 7.037-12.082 10.874-17.927 1.766-2.692 3.357-5.542 5.424-7.985 5.767-6.819 11.555-13.639 17.699-20.113a57.93 57.93 0 0 1 13.927-10.805c1.794-.994 3.481-2.246 5.032-3.593 1.898-1.649 4.016-2.461 6.484-2.444 2.13.014 4.26.134 6.387.084a19.698 19.698 0 0 0 3.791-.473c2.217-.492 4.231.059 6.129 1.086 4.115 2.229 8.192 4.528 12.277 6.814a154.35 154.35 0 0 1 4.24 2.467c.78.47 1.088 1.147 1.142 2.113.143 2.601.436 5.195.696 7.79.048.477.202.948.344 1.411 1.609 5.222 2.243 10.522 1.554 15.983-.728 5.772-1.275 11.566-1.981 17.341-.419 3.43-.954 6.849-1.517 10.259-.146.881-.527 1.743-.916 2.558-3.981 8.338-8.003 16.657-11.98 24.996a3618.498 3618.498 0 0 0-11.533 24.404c-.482 1.029-.755 2.179-.975 3.302-.452 2.32-.794 4.662-1.203 6.99-.062.352-.154.743-.362 1.018-1.975 2.616-2.618 5.709-3.188 8.826-.392 2.146-.748 4.299-1.105 6.451-.047.283-.007.582-.007.906 1.262-.009 1.81-.871 2.291-1.688 2.87-4.87 5.796-9.712 8.519-14.666 4.159-7.565 8.171-15.211 12.237-22.829 4.094-7.669 8.156-15.354 12.271-23.011 2.504-4.66 5.196-9.22 7.587-13.936 1.584-3.123 3.701-5.821 5.75-8.612 3.381-4.607 6.545-9.373 9.843-14.041 2.668-3.774 5.441-7.474 8.083-11.266 1.28-1.837 2.408-3.783 3.534-5.721 4.05-6.97 8.862-13.377 14.29-19.323 1.763-1.93 3.622-3.774 5.445-5.651 4.282-4.409 8.508-8.874 12.873-13.199 3.063-3.036 6.283-5.917 9.499-8.796 3.053-2.735 6.578-4.786 10.165-6.74a216.24 216.24 0 0 0 7.579-4.358c1.464-.876 2.999-1.32 4.691-1.155 6.034.589 12.072 1.153 18.1 1.801 3.72.4 7.193 1.711 10.609 3.176 3.238 1.389 6.467 2.801 9.724 4.148 3.344 1.383 5.188 4.147 6.569 7.24 1.622 3.636 2.106 7.449 1.144 11.384-.826 3.378-.886 6.729.562 9.977.531 1.19-.092 2.28-.284 3.373-.268 1.522-.318 2.957-.025 4.495.256 1.346.212 2.797.032 4.166-.172 1.31-.613 2.603-1.072 3.853-1.367 3.721-2.367 7.478-2.638 11.487-.354 5.238-2.019 10.221-3.759 15.157-3.791 10.749-8.644 21.019-13.822 31.155-5.928 11.604-9.832 23.905-12.308 36.677-1.64 8.455-3.247 16.917-4.917 25.366-2.199 11.129-4.46 22.245-6.664 33.373-1.226 6.186-2.497 12.367-3.541 18.584-.642 3.822-.876 7.713-1.327 11.568-.68 5.808-.802 11.637-.719 17.475.015 1.095.056 2.188.122 3.281.216 3.565-.561 6.983-1.319 10.439-2.144 9.768-.824 19.061 4.187 27.776 1.897 3.3 4.683 5.73 7.749 7.86 1.486 1.032 2.988.637 4.426-.297 2.578-1.672 4.71-3.828 6.719-6.117 3.579-4.076 6.774-8.408 9.399-13.188 1.695-3.084 3.857-5.908 5.731-8.896 4.692-7.485 8.795-15.288 12.253-23.415 4.084-9.601 9.093-18.693 14.782-27.424a218.388 218.388 0 0 0 18.228-34.255 357.157 357.157 0 0 1 16.081-33.131 56.722 56.722 0 0 1 2.244-3.759c.572-.873.714-1.797.604-2.781-.248-2.229-.576-4.45-.782-6.684-.377-4.106-.834-8.213-.989-12.33a116.5 116.5 0 0 1 .132-11.864c.217-3.378.656-6.774 1.366-10.082 1.298-6.045 2.702-12.079 4.365-18.032 2.145-7.68 5.278-15.017 8.482-22.306 2.738-6.231 5.62-12.398 8.453-18.587 1.431-3.125 3.343-5.938 5.766-8.372 3.573-3.589 6.606-7.624 9.685-11.619 1.611-2.09 3.447-3.926 5.576-5.465 3.254-2.35 6.477-4.75 9.818-6.97 4.203-2.792 8.515-5.422 12.775-8.126 1.028-.652 2.098-1.251 3.058-1.991 3.08-2.374 6.603-2.673 10.243-2.144 4.489.651 8.711 2.175 12.716 4.303 2.005 1.066 2.124 1.302 1.854 3.602-.296 2.509-1.519 4.593-3.03 6.531a23.304 23.304 0 0 1-2.054 2.318 11.645 11.645 0 0 0-2.704 4.055c-.754 1.867-1.803 3.576-3.598 4.713-.477.301-.807.872-1.13 1.367-.664 1.017-1.151 2.173-1.934 3.081-3.002 3.487-4.676 7.666-6.308 11.857-2.17 5.565-3.283 11.434-4.755 17.197-2.282 8.943-4.313 17.96-7.358 26.685-2.127 6.096-3.561 12.37-5.139 18.609-1.479 5.846-3.29 11.562-5.88 17.025-1.386 2.921-2.287 6.023-2.876 9.197-.295 1.594-.867 3.034-1.781 4.343-2.736 3.916-3.857 8.296-4.037 13.03-.156 4.088.305 8.12.621 12.17.199 2.542.26 5.096.51 7.632.326 3.318.842 6.617 1.158 9.936.273 2.872 1.707 4.911 3.906 6.691 2.547 2.061 4.859 4.408 7.319 6.58 2.265 1.999 4.888 2.661 7.774 1.637 5.896-2.096 11.84-4.088 17.62-6.473 2.772-1.145 5.32-2.94 7.779-4.706 2.62-1.882 5.241-3.728 8.026-5.368 1.77-1.043 3.377-2.365 5.051-3.569 1.084-.778 2.305-1.428 3.216-2.374 5.688-5.916 11.552-11.692 15.864-18.772.281-.465.479-.981.717-1.473 1.163-2.401 2.158-4.905 3.545-7.17 1.067-1.744 1.995-3.447 2.139-5.595 0-.001-.037-.146-.127-.198-7.342-4.226-14.216-9.114-20.742-14.507-8.889-7.346-15.908-16.223-21.357-26.328-3.052-5.659-4.904-11.775-5.67-18.166-.602-5.02-.484-10.054.264-15.064.889-5.95 1.866-11.894 4.112-17.504 1.557-3.889 3.451-7.643 5.194-11.458.202-.442.428-.875.604-1.328.756-1.954 1.654-3.664 3.871-4.487 1.125-.417 2.149-1.431 2.92-2.41 2.006-2.553 4.704-3.496 7.765-3.838a37.094 37.094 0 0 0 3.938-.644c4.92-1.091 9.566-.699 14.052 1.879 5.954 3.422 12.002 6.689 18.083 9.881 5.798 3.043 9.881 7.536 12.446 13.541 1.674 3.916 3.439 7.789 4.21 12.009.293 1.605.387 3.246.624 4.863.527 3.598 1.016 7.205 1.654 10.784.63 3.526 1.366 7.029 1.348 10.635-.019 3.272.065 6.545-.027 9.814-.089 3.141-.964 6.114-2.437 8.888-2.285 4.306-3.436 8.905-3.797 13.746-.125 1.678-.497 3.337-.753 4.981 1.79 1.221 3.687 1.366 5.757 1.246 9.741-.563 19.055-2.868 28.086-6.49 7.84-3.145 15.022-7.457 21.977-12.183 5.084-3.455 9.946-7.197 14.54-11.293 3.057-2.726 3.129-2.678 2.763-6.775-.212-2.356-.557-4.699-.787-7.052-.285-2.897-.596-5.796-.746-8.701-.202-3.883-.223-7.775-.401-11.659-.068-1.508-.388-3.003-.537-4.51-.173-1.75-.388-3.506-.402-5.26-.049-6.09-.012-12.181-.021-18.271a145.805 145.805 0 0 0-2.149-24.641c-.543-3.141-.73-6.397-.21-9.616.049-.298.071-.611.04-.91-.174-1.641.283-2.133 2.126-2.599.861-.217 1.812-.154 2.718-.114 2.548.111 5.098.2 7.635.44 3.554.336 7.147.476 10.551 1.75 2.286.856 3.737 2.444 4.254 4.832.637 2.947 2.119 5.22 4.826 6.719 2.19 1.213 3.599 2.982 4.344 5.55 1.125 3.88 3.39 7.256 5.869 10.443 1.741 2.24 3.012 4.705 3.66 7.47.291 1.239.33 2.556.755 3.741.798 2.222 1.582 4.495 2.751 6.528 2.102 3.656 3.283 7.582 3.903 11.681.505 3.353.663 6.758 1.087 10.125.492 3.912 1.111 7.807 1.666 11.71.795 5.584 1.643 11.161 2.356 16.755 1.42 11.133 2.896 22.25 4.985 33.288 1.139 6.022 2.958 11.759 5.323 17.377 2.117 5.023 3.215 10.319 3.646 15.733.453 5.686.667 11.39 1.151 17.071.415 4.854 1.458 9.597 3.26 14.148 1.108 2.794 1.84 5.679 1.703 8.698-.051 1.129-.358 2.278-.732 3.355-.999 2.878-.528 5.606.63 8.298.886 2.065 1.838 4.104 2.655 6.196.679 1.735 1.724 3.035 3.474 3.761 1.367.569 2.254 1.458 2.455 3.092.182 1.48 1.571 2.108 2.834 1.273 1.136-.751 2.13-1.783 3.013-2.839 2.978-3.567 5.184-7.639 7.437-11.677 2.755-4.937 5.521-9.867 8.288-14.798 3.51-6.257 7.111-12.465 10.488-18.793 1.102-2.063 1.593-4.448 2.412-6.667a3136.64 3136.64 0 0 1 6.992-18.791c2.098-5.572 4.289-11.108 6.351-16.693a255.497 255.497 0 0 0 3.896-11.369c.62-1.955.304-3.924-1.07-5.505-3.774-4.343-6.6-9.33-9.685-14.137-2.691-4.191-4.412-8.826-5.075-13.745-.817-6.067-1.395-12.168-1.949-18.267-.334-3.683-.462-7.387-.621-11.084-.214-4.952.299-9.813 1.761-14.579 1.389-4.526 2.533-9.128 3.965-13.639.657-2.069 1.552-4.118 2.675-5.973 3.213-5.313 6.778-10.373 11.129-14.862 2.511-2.588 5.538-3.628 8.986-3.752 1.144-.042 2.297.215 3.444.206a63.245 63.245 0 0 0 4.724-.236c3.661-.305 7.272.059 10.892.587 1.855.27 3.752.401 5.627.369 3.1-.051 5.355 1.388 7.143 3.721 4.123 5.38 6.544 11.484 7.503 18.167.361 2.519.665 5.056.806 7.595.197 3.554-.969 6.85-2.447 9.997-2.345 4.996-3.654 10.288-4.887 15.624-.723 3.132-1.526 6.252-2.468 9.323-.863 2.814-2.47 5.289-4.137 7.687-2.22 3.19-3.771 6.602-4.487 10.462-.757 4.077-2.63 7.701-5.426 10.782-.773.853-.865 1.569-.465 2.6 1.327 3.415 3.314 6.327 6.117 8.707 1.58 1.34 2.916 2.881 3.835 4.808 1.829 3.834 4.672 6.79 8.337 8.934 3.671 2.147 7.367 4.253 11.043 6.39 2.317 1.349 4.787 1.324 7.238.635 6.653-1.87 12.893-4.687 18.76-8.356 5.278-3.303 10.066-7.242 14.756-11.296 1.548-1.338 3.011-2.92 4.05-4.667 1.586-2.669 3.903-4.645 5.837-6.978 2.208-2.665 4.479-5.283 6.58-8.03 2.274-2.973 5.008-5.184 8.814-5.554 1.464-.142 2.989.276 4.478.505.466.073.882.448 1.348.538 1.858.362 2.635 1.509 3.278 3.284.865 2.383.442 4.221-1.026 6.087-.662.842-1.089 1.864-1.712 2.741-.698.984-1.528 1.875-2.247 2.846-1.188 1.61-2.315 3.265-3.503 4.875-.898 1.217-1.706 2.558-2.816 3.546-1.293 1.151-2.342 2.389-3.195 3.892a14.12 14.12 0 0 1-5.04 5.167c-3.434 2.077-6.873 4.148-9.878 6.853a3.986 3.986 0 0 1-1.756.907c-3.313.696-6.314 2.181-9.302 3.668-8.389 4.171-17.268 6.851-26.396 8.774-2.729.575-5.486 1.018-8.236 1.488-5.005.855-9.923.299-14.799-.948a179.126 179.126 0 0 1-22.165-7.229c-1.296-.52-2.294-.41-3.316.493-1.746 1.543-2.539 3.381-1.889 5.694.454 1.614.308 3.079-.68 4.507-1.689 2.445-2.622 5.137-2.779 8.163-.158 3.094-1.555 5.836-3.019 8.52-7.251 13.295-14.726 26.459-22.514 39.449-1.932 3.223-3.514 6.658-5.215 10.018-1.756 3.47-4.289 6.136-7.729 7.997-1.812.98-3.463 2.254-5.248 3.286-1.571.907-3.229 1.663-4.849 2.487-.533.272-1.178.439-1.577.845-1.447 1.471-3.253 2.351-5.074 3.173a74.431 74.431 0 0 0-8.671 4.642c-3.93 2.442-8.27 3.731-12.956 3.806-6.919.108-13.477-1.323-19.247-5.162-8.134-5.413-14.705-12.321-18.809-21.348-.653-1.438-1.505-2.797-2.031-4.277-.935-2.626-1.69-5.315-2.521-7.979-.938-3.008-1.804-6.041-2.834-9.017-1.375-3.974-2.412-8.013-3.021-12.178-.572-3.915-1.586-7.74-3.091-11.4-1.13-2.748-1.438-5.621-1.763-8.515-.082-.714-.171-1.479-.485-2.106-2.308-4.616-3.32-9.626-4.481-14.586-1.218-5.199-2.349-10.418-3.556-15.618-.879-3.781-1.749-7.552-1.984-11.452-.105-1.739-.585-3.456-.93-5.38-.43.275-.778.453-1.074.694-3.864 3.155-7.718 6.33-12.042 8.846-1.728 1.005-3.556 1.859-5.399 2.637-4.655 1.962-9.277 3.957-13.522 6.755-4.65 3.065-9.846 5.02-14.99 7.056-4.809 1.901-9.705 3.561-14.865 4.151-2.22.254-4.493.214-6.729.089-1.68-.093-3.331-.682-5.011-.776-1.488-.085-3.014.124-4.498.354-1.435.225-2.826.716-4.26.957-2.553.43-4.338 1.857-5.475 4.098-2.835 5.58-5.674 11.152-7.77 17.08-1.49 4.213-4.127 7.71-7.562 10.562-3.289 2.728-6.271 5.701-8.836 9.158-2.602 3.509-5.527 6.777-8.354 10.116-.584.689-1.33 1.249-2.036 1.824-3.159 2.567-6.416 5.021-9.476 7.703-3.928 3.439-8.471 5.894-12.917 8.516-1.724 1.018-3.458 2.045-5.282 2.854-3.268 1.447-6.709 1.469-10.203.965-4.334-.626-8.306-2.213-12.15-4.229-5.113-2.68-10.41-5.006-15.283-8.148-7.702-4.966-14.85-10.604-21.191-17.221-3.708-3.868-7.089-8.015-9.84-12.642-.21-.354-.489-.668-.871-1.183-.817 1.745-1.499 3.345-2.299 4.884-1.904 3.667-3.693 7.408-5.84 10.93-3.422 5.616-5.988 11.55-7.33 17.972-1.084 5.187-2.895 10.076-5.896 14.418-3.688 5.337-5.953 11.194-7.673 17.412-1.486 5.373-3.557 10.593-5.55 15.812-.683 1.789-1.799 3.448-2.909 5.033-5.254 7.499-9.636 15.461-13.12 23.933-3.094 7.523-7.794 13.857-14.34 18.761-3.608 2.703-7.033 5.614-10.149 8.88-3.109 3.257-6.734 5.745-10.884 7.512-2.337.996-4.788 1.276-7.262 1.428-7.167.44-14.184-.466-21.04-2.566-6.584-2.019-12.697-4.92-17.593-9.929-2.645-2.707-4.852-5.765-6.816-8.994-4.365-7.18-7.061-15.057-9.51-23.024-.421-1.368-.434-2.863-.622-4.301-.298-2.285-.601-4.569-.87-6.858-.375-3.19-.715-6.385-1.08-9.577-.269-2.348-.559-4.692-.833-7.04-.099-.841-.234-1.685-.253-2.529-.039-1.766.014-3.532-.016-5.298-.11-6.263-.358-12.524-.32-18.786.027-4.365.406-8.729.682-13.089.231-3.633.469-7.269.835-10.89.427-4.224.872-8.453 1.536-12.645a465.459 465.459 0 0 1 3.187-17.9c2.606-13.113 6.259-25.959 10.255-38.706 2.869-9.154 5.765-18.299 8.762-27.41a761.784 761.784 0 0 1 13.243-37.069 6500.084 6500.084 0 0 0 7.139-18.543c2.057-5.361 2.98-11.004 4.111-16.596.443-2.19.969-4.365 1.475-6.622-1.039-.562-2.074-.764-3.121-.22-.912.473-1.871.941-2.63 1.614-4.634 4.116-9.261 8.242-13.809 12.454-9.711 8.996-18.191 19.089-26.229 29.577-2.891 3.772-6.22 7.159-9.617 10.478-.516.505-.966 1.086-1.388 1.674-2.373 3.31-4.583 6.75-7.122 9.927-4.614 5.769-8.536 11.968-12.261 18.329-5.377 9.183-10.953 18.248-16.376 27.405-6.974 11.769-13.98 23.522-20.787 35.388-6.745 11.759-13.201 23.683-19.902 35.468-2.733 4.807-5.795 9.425-8.663 14.155-.721 1.189-1.275 2.48-1.893 3.732-2.046 4.145-4.119 8.276-6.116 12.445-.864 1.804-1.501 3.718-2.36 5.525-1.618 3.4-3.266 6.789-5.005 10.13-1.633 3.137-3.183 6.29-3.798 9.812-.167.955-.376 1.918-.392 2.88-.035 2.035-.497 3.972-1.143 5.876-.663 1.955-.457 3.974-.471 5.976-.021 2.804-.582 3.262-3.366 2.79-1.115-.188-2.266-.618-3.373-.008-.781.435-1.511.949-2.169 1.365m397.046-155.297c1.018-1.391 2.053-2.67 2.932-4.05.793-1.242 1.233-2.603.895-4.157-.371-1.691.057-3.264 1.126-4.626 1.614-2.056 2.499-4.418 3.091-6.932.931-3.954.898-7.964.725-11.974-.145-3.271-.465-6.533-.679-9.802-.144-2.179-.18-4.367-.366-6.541-.408-4.748-1.967-9.093-4.543-13.12a88.96 88.96 0 0 1-4.407-7.755c-.731-1.445-1.077-3.083-1.604-4.632-.69-2.034-2.724-2.93-4.259-1.761-.576.439-.994 1.22-1.246 1.93-.722 2.045-1.44 4.055-2.396 6.035-2.406 4.987-3.992 10.298-4.92 15.775-.326 1.928-.848 3.752-1.665 5.548-2.448 5.376-3.528 11.027-2.224 16.865 2.307 10.319 6.951 19.407 14.756 26.721 1.308 1.225 2.771 2.15 4.784 2.476m242.754-46.544c.107-.119.27-.232.341-.387 1.154-2.543 2.355-5.064 2.862-7.851.172-.948.389-1.936.826-2.781 1.181-2.281 1.333-4.78 1.605-7.225.423-3.795.523-7.624.92-11.423.35-3.373.688-6.759 1.861-9.995.859-2.372 1.172-4.8.587-7.33-.61-2.647-1.694-5.025-3.302-7.129-2.71.691-2.974 1.013-3.23 3.526-.214 2.091-.88 3.993-2.192 5.699-3.789 4.926-4.827 10.59-3.766 16.558.651 3.665 1.134 7.303 1.122 11.017-.015 4.931-.007 9.862-.002 14.793.003 2.202.063 2.258 2.368 2.528m55.763 114.758c-5.892 1.102-10.788 3.999-14.734 8.458-3.79 4.283-5.919 9.294-5.98 15.065-.024 2.317.477 4.569 1.278 6.758.288.78.396 1.634.522 2.465.245 1.611.262 3.282.695 4.838 2.312 8.309 9.41 13.529 18.153 13.595 3.104.023 6.118-.851 8.937-2.246 5.486-2.719 9.987-6.655 13.91-11.292 2.26-2.673 4.077-5.595 4.759-9.107.079-.406.316-.786.499-1.169 1.053-2.199 1.925-4.465 2.149-6.912.438-4.768-.484-9.173-3.555-12.998-2.628-3.273-6.17-5.048-10.086-6.177-4.396-1.267-8.887-1.857-13.481-1.649-1.022.12-2.056.183-3.066.371"/>
</svg>
