<?xml version="1.0" standalone="no"?>
<!DOCTYPE svg PUBLIC "-//W3C//DTD SVG 20010904//EN"
 "http://www.w3.org/TR/2001/REC-SVG-20010904/DTD/svg10.dtd">
<svg version="1.0" xmlns="http://www.w3.org/2000/svg"
 width="380.000000pt" height="380.000000pt" viewBox="0 0 380.000000 380.000000"
 preserveAspectRatio="xMidYMid meet">
<metadata>
Created by potrace 1.11, written by Peter Selinger 2001-2013
</metadata>
<g transform="translate(0.000000,380.000000) scale(0.100000,-0.100000)"
fill="#000000" stroke="none">
<path d="M2916 3402 c-11 -2 -36 -14 -55 -27 -20 -12 -56 -34 -81 -48 -44 -24
-177 -150 -309 -292 -35 -38 -97 -119 -136 -180 -40 -60 -114 -168 -165 -240
-51 -71 -95 -137 -98 -145 -3 -8 -20 -40 -37 -70 -18 -30 -60 -109 -95 -175
-34 -66 -76 -145 -93 -175 -97 -179 -150 -270 -157 -275 -11 -7 0 73 16 113
16 40 14 33 25 83 6 23 20 65 33 93 27 57 102 216 164 346 46 96 45 92 67 265
14 104 15 168 4 207 -11 40 -13 56 -17 115 -2 15 -20 31 -59 54 -102 58 -147
78 -163 70 -8 -4 -40 -7 -69 -5 -52 1 -60 -2 -142 -58 -48 -32 -109 -82 -135
-111 -183 -197 -221 -252 -407 -607 -148 -282 -223 -422 -265 -490 -25 -41
-74 -130 -108 -197 -35 -68 -66 -119 -69 -113 -6 10 3 119 12 133 2 4 6 49 9
100 7 147 10 167 47 267 132 358 195 554 203 623 8 77 23 170 35 222 14 65 11
93 -20 158 -23 49 -29 76 -29 130 -1 68 -12 97 -38 97 -7 0 -17 6 -21 13 -20
34 -68 52 -153 58 -51 4 -60 -5 -60 -66 0 -30 -4 -76 -10 -102 -5 -26 -12 -59
-14 -73 -17 -95 -28 -137 -47 -178 -20 -45 -56 -141 -64 -172 -12 -42 -24 -99
-29 -131 -3 -19 -48 -163 -100 -320 -65 -193 -98 -311 -106 -369 -6 -47 -15
-103 -20 -125 -5 -22 -12 -65 -15 -95 -4 -30 -8 -57 -10 -60 -2 -3 -6 -39 -10
-80 -4 -41 -9 -84 -12 -95 -2 -11 -7 -137 -10 -281 -6 -274 -2 -314 37 -349
10 -9 35 -18 55 -20 20 -2 44 -10 53 -18 10 -8 41 -25 69 -37 51 -21 54 -22
80 -5 16 9 63 54 106 98 61 65 89 106 137 198 36 71 62 135 66 164 8 61 58
193 117 312 26 50 63 133 83 184 20 52 56 130 78 174 59 113 342 619 383 683
18 29 54 88 79 130 25 42 74 105 108 138 33 34 71 74 84 90 l23 29 -5 -55 c-3
-30 -8 -66 -11 -80 -3 -14 -8 -37 -10 -52 -15 -101 -72 -259 -196 -541 -147
-333 -158 -363 -217 -562 -65 -219 -86 -305 -98 -420 -17 -149 -3 -320 33
-393 21 -43 123 -117 173 -124 30 -4 31 -3 28 26 -3 30 -1 31 40 34 41 3 42 4
42 40 1 79 30 172 109 335 44 93 107 212 139 265 32 53 76 129 97 167 158 291
525 899 602 997 159 203 236 291 366 420 126 126 186 175 200 162 5 -6 -16
-106 -39 -179 -9 -27 -49 -138 -89 -245 -213 -571 -319 -975 -340 -1295 -10
-154 -5 -420 10 -495 2 -14 7 -52 11 -85 12 -120 78 -274 150 -354 80 -89 193
-132 346 -133 78 0 130 21 194 79 23 21 73 66 113 101 63 56 77 75 123 170 28
59 71 138 96 177 51 79 81 155 117 290 22 81 25 114 25 257 l0 163 -53 -105
c-30 -58 -81 -149 -116 -204 -68 -109 -98 -164 -166 -311 -79 -171 -235 -403
-293 -437 -28 -17 -30 -16 -64 7 -53 36 -112 171 -103 236 1 8 6 37 10 64 4
28 9 93 10 145 2 97 12 231 21 272 2 13 6 34 9 48 53 284 160 793 179 848 14
39 48 120 76 180 98 203 144 326 155 412 4 30 13 73 21 95 7 22 13 72 13 110
0 39 0 106 0 150 1 118 -18 148 -129 196 -82 36 -108 42 -235 55 -33 3 -62 7
-65 8 -3 2 -14 1 -24 -2z"/>
</g>
</svg>
